<svg id="telegram" xmlns="http://www.w3.org/2000/svg" viewBox="0 0 40 40"><defs><style>.cls-1{fill:#67899c;}</style></defs><g id="Слой_2" data-name="Слой 2"><g id="main"><path class="cls-1" d="M20,1A19,19,0,1,1,1,20,19,19,0,0,1,20,1m0-1A20,20,0,1,0,40,20,20,20,0,0,0,20,0Z"/><path class="cls-1" d="M9,19.83c5.83-2.5,9.67-4.16,11.67-5,5.5-2.33,6.66-2.66,7.5-2.66a1.87,1.87,0,0,1,.83.16c.17.17.33.34.33.5v.84C29,16.83,27.67,24.5,27,28c-.33,1.5-.83,2-1.33,2-1.17.17-2-.83-3.17-1.5-1.83-1.17-2.83-1.83-4.5-3-2-1.33-.67-2,.5-3.17.33-.33,5.33-5,5.5-5.33a.49.49,0,0,0-.17-.33.23.23,0,0,0-.33,0q-.26,0-8.5,5.5a4.42,4.42,0,0,1-2.17.83,13.2,13.2,0,0,1-3.16-.67C8.33,22,7.5,21.67,7.5,21,7.67,20.5,8.17,20.17,9,19.83Z"/></g></g></svg>