<svg id="telegram"  xmlns="http://www.w3.org/2000/svg" viewBox="0 0 23.5 19.1"><defs><style>.cls-1{fill:#67899c;}</style></defs><g id="Слой_2" data-name="Слой 2"><g id="main"><path class="cls-1" d="M7.39,19.1A13.63,13.63,0,0,0,21.11,5.38c0-.21,0-.42,0-.62a9.71,9.71,0,0,0,2.41-2.5A9.79,9.79,0,0,1,20.73,3,4.82,4.82,0,0,0,22.85.35a9.3,9.3,0,0,1-3.06,1.17,4.82,4.82,0,0,0-8.34,3.3,4.94,4.94,0,0,0,.12,1.1,13.66,13.66,0,0,1-9.93-5A4.81,4.81,0,0,0,3.13,7.32a4.78,4.78,0,0,1-2.19-.6v.06A4.83,4.83,0,0,0,4.81,11.5a4.81,4.81,0,0,1-1.27.17,5.5,5.5,0,0,1-.91-.08,4.85,4.85,0,0,0,4.51,3.35,9.69,9.69,0,0,1-6,2.06A8.77,8.77,0,0,1,0,16.93,13.63,13.63,0,0,0,7.39,19.1"/></g></g></svg>