<svg id="twitter" xmlns="http://www.w3.org/2000/svg" viewBox="0 0 40 40"><defs><style>.cls-1{fill:#67899c;}</style></defs><g id="Слой_2" data-name="Слой 2"><g id="main"><path class="cls-1" d="M20,1A19,19,0,1,1,1,20,19,19,0,0,1,20,1m0-1A20,20,0,1,0,40,20,20,20,0,0,0,20,0Z"/><path class="cls-1" d="M16.34,30.55A13.63,13.63,0,0,0,30.06,16.83c0-.21,0-.42,0-.62a9.71,9.71,0,0,0,2.41-2.5,9.47,9.47,0,0,1-2.77.76A4.82,4.82,0,0,0,31.8,11.8,9.3,9.3,0,0,1,28.74,13a4.82,4.82,0,0,0-8.34,3.3,4.94,4.94,0,0,0,.12,1.1,13.66,13.66,0,0,1-9.93-5,4.81,4.81,0,0,0,1.49,6.44,4.78,4.78,0,0,1-2.19-.6v.06A4.85,4.85,0,0,0,13.76,23a4.81,4.81,0,0,1-1.27.16,5.5,5.5,0,0,1-.91-.08,4.85,4.85,0,0,0,4.51,3.35,9.69,9.69,0,0,1-6,2.06A8.77,8.77,0,0,1,9,28.38a13.63,13.63,0,0,0,7.39,2.17"/></g></g></svg>