<svg id="twitter"  xmlns="http://www.w3.org/2000/svg" viewBox="0 0 21.83 17.85"><defs><style>.cls-1{fill:#67899c;}</style></defs><g id="Слой_2" data-name="Слой 2"><g id="main"><path class="cls-1" d="M1.5,7.67c5.83-2.5,9.67-4.17,11.67-5C18.67.33,19.83,0,20.67,0a1.78,1.78,0,0,1,.83.17c.17.16.33.33.33.5V1.5c-.33,3.17-1.66,10.83-2.33,14.33-.33,1.5-.83,2-1.33,2C17,18,16.17,17,15,16.33c-1.83-1.16-2.83-1.83-4.5-3-2-1.33-.67-2,.5-3.16.33-.34,5.33-5,5.5-5.34a.51.51,0,0,0-.17-.33.23.23,0,0,0-.33,0q-.25,0-8.5,5.5a4.42,4.42,0,0,1-2.17.83,13.63,13.63,0,0,1-3.16-.66C.83,9.83,0,9.5,0,8.83.17,8.33.67,8,1.5,7.67Z"/></g></g></svg>